<?xml version="1.0" encoding="utf-8"?>
<!-- Generator: Adobe Illustrator 26.5.0, SVG Export Plug-In . SVG Version: 6.00 Build 0)  -->
<svg version="1.1" id="Capa_1" xmlns="http://www.w3.org/2000/svg" xmlns:xlink="http://www.w3.org/1999/xlink" x="0px" y="0px"
	 viewBox="0 0 102 125" style="enable-background:new 0 0 102 125;" xml:space="preserve">
<style type="text/css">
	.st0{fill:#003C71;}
</style>
<g>
	<path class="st0" d="M47.9,115.3c-2.7-1-7.6-3.5-10.1-5c-5-3-11-8.2-14.8-12.7C16,89.3,10.6,77.2,9.4,67.1c-0.4-3-0.4-50.8,0-52
		c0.3-1,1.1-1.9,2.1-2.5c0.8-0.4,6.5-1.3,14.6-2.2C35.9,9.3,39,9.1,51.3,9.2C64,9.2,67.6,9.4,79,10.8c11.4,1.4,12,1.6,13.1,3.3
		l0.6,0.8V41c0,17.6-0.1,26.6-0.3,27.6c-2.3,12.6-8.2,24-16.8,32.6c-5.9,5.9-13.1,10.6-20.9,13.7C51.5,116.3,50.5,116.3,47.9,115.3
		L47.9,115.3z M72.5,31.8c0,0-0.9,0-2,0H55.4c-1.1,0-2-0.9-2-2v-6.6c0-1.1-0.9-2-2-2h-0.7c-1.1,0-2,0.9-2,2v6.6c0,1.1-0.9,2-2,2
		H31.6c-1.1,0-2,0-2,0v0c0,0-0.4,0.8-0.8,1.8L13.9,68.2c-0.4,1-0.2,2.6,0.4,3.5c0,0,6.1,7.9,15.2,7.9s15.2-7.9,15.2-7.9
		c0.7-0.9,0.9-2.4,0.4-3.5L31.6,36.5c-0.4-1,0.1-1.9,1.2-1.9h36.4c1.1,0,1.7,0.8,1.2,1.9L56.9,68.2c-0.4,1-0.2,2.6,0.4,3.5
		c0,0,6.1,7.9,15.2,7.9c9.1,0,15.2-7.9,15.2-7.9c0.7-0.9,0.9-2.4,0.4-3.5L73.3,33.6C72.9,32.6,72.5,31.8,72.5,31.8L72.5,31.8z
		 M71.7,41.5c0.4-1,1.2-1,1.6,0L84,66.7c0.4,1-0.1,1.9-1.2,1.9H62.2c-1.1,0-1.7-0.8-1.2-1.9L71.7,41.5z M28.8,41.6
		c0.4-1,1.2-1,1.6,0l10.7,25c0.4,1-0.1,1.9-1.2,1.9H19.3c-1.1,0-1.7-0.8-1.2-1.9L28.8,41.6z M99.4,41.4V42l0,1.8l0,0.6l0,0.6l0,1.8
		l0,0.6l0,1.2l0,0.6l0,0.6l0,0.6l0,0.6l0,1.2l0,0.6l0,0.6l0,0.6l0,0.6l0,0.6l0,0.6l0,0.6l0,0.6l0,0.6l0,0.6l0,0.6l0,0.6l0,0.6l0,0.6
		l0,0.6l0,0.6l0,0.6l0,0.6l0,0.6l0,0.6l0,0.6l0,0.6l0,0.6l0,0.6l0,0.6l0,0.6l0,0.6l0,0.6l0,0.6c0,0,0,0,0,0.1L99,69.7
		c0,0,0,0.1,0,0.1l-0.1,0.5l-0.1,0.6l-0.1,0.6l-0.1,0.6l-0.1,0.6l-0.1,0.6l-0.1,0.6L98,74.4L97.9,75l-0.2,0.6l-0.2,0.6l-0.2,0.6
		l-0.2,0.6L97,77.9l-0.2,0.6L96.7,79l-0.2,0.6l-0.2,0.6l-0.2,0.6l-0.2,0.6l-0.2,0.6l-0.2,0.6L95.3,83l-0.2,0.6l-0.2,0.6l-0.2,0.6
		l-0.2,0.6l-0.2,0.5l-0.2,0.5l-0.2,0.5l-0.3,0.5l-0.3,0.5l-0.3,0.5L92.6,89l-0.3,0.5l0,0.1L92,90.1l-0.3,0.5l-0.3,0.5l-0.3,0.5
		l-0.3,0.5l-0.3,0.5l-0.3,0.5l-0.3,0.5l-0.3,0.5l-0.3,0.5L89,95.3l-0.3,0.5l-0.3,0.5L88,96.8l-0.3,0.5l-0.3,0.5L87,98.3l-0.4,0.5
		l-0.4,0.5l-0.4,0.5l-0.4,0.5l-0.4,0.5l-0.4,0.5l-0.4,0.5L84,102l-0.4,0.5l-0.4,0.5l-0.4,0.4l-0.4,0.4l-0.4,0.4l-0.4,0.4l-0.4,0.4
		l-0.4,0.4l-0.4,0.4l-0.2,0.2l-0.4,0.4l-0.4,0.4l-0.4,0.4l-0.4,0.4l-0.4,0.4l-0.4,0.4l-0.4,0.4l-0.5,0.4l-0.5,0.4l-0.5,0.4l-0.5,0.4
		l-0.5,0.4l-0.5,0.4l-0.5,0.4l-0.5,0.4l-0.5,0.4l-0.5,0.4l-0.5,0.4l-0.5,0.3l-0.5,0.3l-0.5,0.3l-0.5,0.3l-0.5,0.3l-0.5,0.3l-0.5,0.3
		l-0.5,0.3l-0.5,0.3l-0.5,0.3l-0.5,0.3l-0.5,0.3l-0.5,0.3l-0.5,0.3l-0.5,0.3l-0.5,0.3l-0.5,0.3l-0.5,0.3l-0.5,0.3l-0.5,0.3l-0.5,0.3
		l-0.5,0.3l-0.5,0.2l-0.5,0.2l-0.5,0.2l-0.6,0.2l-0.6,0.2l-0.6,0.2l-0.3,0.1l-0.6,0.2l-0.6,0.2c0,0,0,0,0,0l-0.6,0.2c0,0,0,0,0,0
		l-0.6,0.2c0,0,0,0,0,0l-0.6,0.2c0,0,0,0,0,0l-0.6,0.1c0,0,0,0-0.1,0l-0.6,0.1c0,0,0,0-0.1,0l-0.6,0.1c0,0-0.1,0-0.1,0l-0.6,0
		c0,0,0,0-0.1,0l-0.2,0c0,0,0,0-0.1,0l-0.6,0c0,0-0.1,0-0.1,0l-0.6,0c0,0-0.1,0-0.1,0l-0.6-0.1c0,0,0,0-0.1,0l-0.6-0.1
		c0,0,0,0-0.1,0l-0.6-0.1c0,0,0,0-0.1,0l-0.6-0.2c0,0,0,0,0,0l-0.6-0.2c0,0,0,0,0,0l-0.6-0.2c0,0,0,0,0,0l-0.5-0.2l-0.4-0.2
		l-0.6-0.2l-0.6-0.2l-0.6-0.2l-0.5-0.2l-0.5-0.2l-0.5-0.2l-0.5-0.3l-0.5-0.3l-0.5-0.3l-0.5-0.3l-0.5-0.3l-0.5-0.3l-0.5-0.3l-0.5-0.3
		l-0.5-0.3l-0.5-0.3l-0.5-0.3l-0.5-0.3l-0.5-0.3l-0.5-0.3l-0.1,0l-0.5-0.3l-0.5-0.3l-0.5-0.3l-0.5-0.3l-0.5-0.3l-0.5-0.3l-0.5-0.3
		l-0.5-0.4l-0.5-0.4l-0.5-0.4l-0.5-0.4l-0.5-0.4l-0.5-0.4l-0.5-0.4l-0.5-0.4l-0.5-0.4L26,110l-0.5-0.4l-0.1-0.1l-0.4-0.4l-0.4-0.4
		l-0.4-0.4l-0.4-0.4l-0.4-0.4l-0.4-0.4l-0.4-0.4l-0.4-0.4l-0.4-0.4l-0.4-0.4l-0.4-0.4l-0.4-0.4l-0.4-0.4l-0.4-0.4l-0.4-0.4l-0.4-0.5
		l-0.4-0.5l-0.4-0.5l-0.3-0.3l-0.4-0.5l-0.4-0.5l-0.4-0.5l-0.4-0.5l-0.4-0.5l-0.4-0.5L15,98.2l-0.3-0.5l-0.3-0.5L14,96.8l-0.3-0.5
		l-0.3-0.5L13,95.3l-0.3-0.5l-0.3-0.5L12,93.7l-0.3-0.5l-0.3-0.5l-0.3-0.5l-0.3-0.5l-0.3-0.5l-0.3-0.5L10,90.1l-0.3-0.5L9.4,89
		l-0.3-0.5l-0.3-0.5l-0.3-0.5l-0.3-0.5l-0.2-0.5l-0.2-0.5l0,0l-0.2-0.5l-0.2-0.5l-0.2-0.6L7,83.5L6.7,83l-0.2-0.6l-0.2-0.6l-0.2-0.6
		l-0.2-0.6l-0.2-0.6l-0.2-0.6L5.3,79l-0.2-0.6l-0.2-0.6l-0.2-0.6l-0.2-0.6l-0.2-0.6l-0.2-0.6L4.1,75L4,74.4l-0.1-0.6l-0.1-0.6
		l-0.1-0.6l-0.1-0.6l-0.1-0.6l-0.1-0.6l-0.1-0.6L3,69.7l-0.1-0.6l-0.1-0.6l-0.1-0.6c0,0,0,0,0,0l0-0.3c0,0,0,0,0,0l0-0.6l0-0.6
		l0-0.6l0-0.6l0-0.6l0-0.6l0-0.6l0-0.6l0-0.6l0-0.6l0-0.6l0-0.6l0-0.6l0-0.6l0-0.6l0-0.6l0-0.6l0-0.6l0-0.6l0-0.6l0-0.6l0-0.6l0-0.6
		l0-0.6l0-0.6l0-0.6l0-0.6l0-0.6l0-0.6l0-0.6l0-0.6l0-0.6l0-0.6l0-0.6l0-0.6l0-0.6l0-0.6l0-0.6l0-0.6l0-0.6l0-0.6l0-0.6l0-0.6l0-0.6
		l0-0.6l0-0.6l0-0.4l0-0.6l0-0.6l0-0.6l0-0.6l0-0.6l0-0.6l0-0.6l0-0.6l0-0.6l0-0.6l0-0.6l0-0.6l0-0.6l0-0.6l0-0.6l0-0.6l0-0.6l0-0.6
		l0-0.6l0-0.6l0-0.6l0-0.6l0-0.6l0-0.6l0-0.6l0-0.6l0-0.6l0-0.6l0-0.6l0-0.6l0-0.6l0-0.6l0-0.6l0-0.6l0-0.6l0-0.6l0-0.6l0-0.6l0-0.6
		l0-0.6l0-0.6l0-0.6l0-0.6c0,0,0,0,0,0l0.1-0.6c0,0,0-0.1,0-0.1l0.1-0.6c0-0.1,0-0.1,0-0.2l0.2-0.6c0,0,0-0.1,0-0.1L3.4,12
		c0,0,0-0.1,0-0.1l0.2-0.5c0,0,0-0.1,0-0.1L4,10.8c0,0,0-0.1,0-0.1l0.3-0.5c0,0,0-0.1,0.1-0.1l0.3-0.5c0,0,0-0.1,0.1-0.1l0.4-0.4
		c0,0,0,0,0.1-0.1l0.4-0.4c0,0,0,0,0.1-0.1l0.4-0.4c0,0,0,0,0.1-0.1l0.5-0.4c0,0,0,0,0.1-0.1l0.5-0.3c0,0,0,0,0.1,0l0.5-0.3
		c0,0,0,0,0.1,0l0.5-0.3c0,0,0.1,0,0.1,0l0.2-0.1c0,0,0.1,0,0.1,0l0.6-0.2c0,0,0.1,0,0.1,0L10,6.1c0,0,0,0,0,0L10.6,6c0,0,0,0,0,0
		l0.6-0.1l0.6-0.1l0.6-0.1L13,5.5l0.6-0.1l0.6-0.1l0.6-0.1l0.6-0.1L16,5l0.6-0.1l0.6-0.1l0.6-0.1l0.6-0.1l0.6-0.1l0.6-0.1l0.6-0.1
		l0.6-0.1l0.6-0.1l0.6-0.1l0.6-0.1L23,4.1L23.6,4l0.6-0.1l0.6-0.1l0.6-0.1l0.3,0l0.6-0.1l0.6-0.1l0.6-0.1L28,3.5l0.6-0.1l0.6-0.1
		l0.6-0.1l0.6-0.1l0.6-0.1l0.6-0.1l0.6-0.1L32.7,3L33.3,3l0.6,0l0.6,0l0.6,0l0.6,0l0.6,0l0.6,0l0.6,0l0.3,0l0.6,0l0.6,0l0.6,0l0.6,0
		l0.6,0l0.6,0l0.6,0l0.6,0l0.6,0l0.6,0l0.6,0l0.6,0l0.6,0l0.6,0l0.6,0l0.6,0l0.6,0l0.6,0l0.6,0l0.6,0l0.6,0l0.6,0l0.6,0l0.6,0l0.6,0
		l0.6,0l0.6,0l0.6,0l0.6,0l0.6,0l0.6,0l0.6,0l0.6,0l0.6,0l0.6,0l0.6,0l0.6,0l0.6,0l0.6,0l0.6,0l0.6,0l0.6,0l0.6,0l0.6,0l0.6,0l0.6,0
		l0.6,0l0.6,0l0.3,0l0.6,0l0.6,0l0.6,0l0.6,0L69.3,3L69.9,3l0.6,0.1L71,3.2l0.6,0.1l0.6,0.1l0.6,0.1l0.6,0.1L74,3.5l0.6,0.1l0.6,0.1
		l0.6,0.1l0.6,0.1l0.6,0.1l0.6,0.1l0.6,0.1L78.7,4l0.6,0.1l0.6,0.1l0.6,0.1L81,4.3l0.6,0.1l0.6,0.1l0.6,0.1l0.6,0.1l0.6,0.1l0.6,0.1
		l0.6,0.1l0.6,0.1L86.2,5l0.6,0.1l0.6,0.1L88,5.3l0.6,0.1l0.6,0.1l0.6,0.1l0.6,0.1c0,0,0,0,0,0L91,5.8c0,0,0,0,0,0l0.1,0
		c0,0,0,0,0,0L91.7,6c0,0,0,0,0.1,0l0.6,0.2c0,0,0,0,0.1,0L93,6.5c0,0,0,0,0.1,0l0.5,0.2c0,0,0,0,0.1,0l0.5,0.3c0,0,0.1,0,0.1,0
		l0.5,0.3c0,0,0.1,0,0.1,0l0.5,0.3c0,0,0,0,0.1,0.1l0.5,0.4c0,0,0,0,0.1,0.1l0.4,0.4c0,0,0,0,0.1,0.1l0.4,0.4c0,0,0,0,0.1,0.1
		l0.4,0.5c0,0,0,0,0.1,0.1l0.3,0.5c0,0,0,0,0,0l0.2,0.4l0.3,0.5c0,0,0,0,0,0l0.2,0.3c0,0,0,0.1,0.1,0.1l0.2,0.3c0,0,0,0.1,0,0.1
		l0.2,0.4c0,0,0,0.1,0,0.1l0.1,0.4c0,0,0,0.1,0,0.1l0.1,0.4c0,0,0,0.1,0,0.1l0.1,0.4c0,0,0,0.1,0,0.1l0,0.4c0,0,0,0.1,0,0.1l0,0.4
		c0,0,0,0,0,0.1V41L99.4,41.4z M96.5,14.9l0-0.3l0-0.3l-0.1-0.3l-0.1-0.3l-0.1-0.3l-0.1-0.3L96,13l-0.2-0.3l-0.3-0.5l-0.2-0.3
		L95,11.5l-0.3-0.4l-0.3-0.4L94,10.4l-0.4-0.3l-0.4-0.3l-0.4-0.3l-0.4-0.2l-0.5-0.2l-0.5-0.2l-0.5-0.2l-0.5-0.1l-0.1,0l-0.5-0.1
		l-0.5-0.1l-0.6-0.1l-0.6-0.1l-0.6-0.1L87,8l-0.6-0.1l-0.6-0.1l-0.6-0.1l-0.6-0.1l-0.6-0.1l-0.6-0.1l-0.6-0.1l-0.6-0.1l-0.6-0.1
		l-0.6-0.1l-0.6-0.1L80,7L79.5,7l-0.6-0.1l-0.6-0.1l-0.6-0.1l-0.6-0.1l-0.6-0.1L76,6.5l-0.6-0.1l-0.6-0.1l-0.6-0.1l-0.6-0.1
		l-0.6-0.1l-0.6-0.1l-0.6-0.1L71.3,6L70.8,6l-0.6-0.1l-0.6-0.1L69,5.8l-0.6,0l-0.6,0l-0.6,0l-0.6,0l-0.6,0l-0.3,0l-0.6,0l-0.6,0
		l-0.6,0l-0.6,0l-0.6,0l-0.6,0l-0.6,0l-0.6,0l-0.6,0l-0.6,0l-0.6,0l-0.6,0l-0.6,0l-0.6,0l-0.6,0l-0.6,0l-0.6,0l-0.6,0l-0.6,0l-0.6,0
		l-0.6,0l-0.6,0l-0.6,0l-0.6,0l-0.6,0l-0.6,0l-0.6,0l-0.6,0l-0.6,0l-0.6,0l-0.6,0l-0.6,0l-0.6,0l-0.6,0l-0.6,0l-0.6,0l-0.6,0l-0.6,0
		l-0.6,0l-0.6,0l-0.6,0l-0.6,0l-0.6,0l-0.6,0l-0.6,0l-0.6,0l-0.6,0l-0.6,0l-0.3,0l-0.6,0l-0.6,0l-0.6,0l-0.6,0l-0.6,0l-0.6,0l-0.6,0
		L33,5.8l-0.6,0.1l-0.6,0.1L31.2,6L30.6,6L30,6.1l-0.6,0.1l-0.6,0.1l-0.6,0.1l-0.6,0.1l-0.6,0.1l-0.6,0.1L26,6.5l-0.3,0l-0.6,0.1
		l-0.6,0.1l-0.6,0.1l-0.6,0.1l-0.6,0.1L22.2,7l-0.6,0.1L21,7.2l-0.6,0.1l-0.6,0.1l-0.6,0.1l-0.6,0.1l-0.6,0.1l-0.6,0.1L17,7.7
		l-0.6,0.1l-0.6,0.1L15.2,8l-0.6,0.1l-0.6,0.1l-0.6,0.1L13,8.4l-0.6,0.1l-0.6,0.1l-0.6,0.1l-0.5,0.1L10.3,9L9.8,9.2L9.7,9.2L9.2,9.5
		L8.8,9.7L8.4,10L8,10.3l-0.4,0.3L7.3,11L7,11.4l-0.3,0.4l-0.3,0.4l-0.2,0.4L6,13.1l-0.2,0.5L5.7,14l-0.1,0.4l0,0.5l0,0.6l0,0.6
		l0,0.6l0,0.6l0,0.6l0,0.6l0,0.6l0,0.6l0,0.6l0,0.6l0,0.6l0,0.6l0,0.6l0,0.6l0,0.6l0,0.6l0,0.6l0,0.6l0,0.6l0,0.6l0,0.6l0,0.6l0,0.6
		l0,0.6l0,0.6l0,0.6l0,0.6l0,0.6l0,0.6l0,0.6l0,0.6l0,0.6l0,0.6l0,0.6l0,0.6l0,0.6l0,0.6l0,0.6l0,0.6l0,0.6l0,0.6l0,0.6l0,0.6l0,0.4
		l0,0.6l0,0.6l0,0.6l0,0.6l0,0.6l0,0.6l0,0.6l0,0.6l0,0.6l0,0.6l0,0.6l0,0.6l0,0.6l0,0.6l0,0.6l0,0.6l0,0.6l0,0.6l0,0.6l0,0.6l0,0.6
		l0,0.6l0,0.6l0,0.6l0,0.6l0,0.6l0,0.6l0,0.6l0,0.6l0,0.6l0,0.6l0,0.6l0,0.6l0,0.6l0,0.6l0,0.6l0,0.6l0,0.6l0,0.6l0,0.6l0,0.6l0,0.6
		l0,0.6l0,0.6l0,0.6l0,0.6l0,0.2l0.1,0.5l0.1,0.6l0.1,0.6l0.1,0.6L6,70.4l0.1,0.6l0.1,0.6l0.1,0.6l0.1,0.6l0.1,0.6l0.1,0.6l0.1,0.6
		L7,74.8l0.2,0.6L7.3,76l0.2,0.6L7.6,77l0.2,0.5L8,78.1l0.2,0.5l0.2,0.5l0.2,0.5l0.2,0.5l0.2,0.5l0.2,0.5l0.2,0.5l0.2,0.5L9.8,83
		l0.2,0.5l0.2,0.5l0.2,0.5l0,0l0.2,0.5l0.2,0.5l0.2,0.5l0.2,0.5l0.3,0.5l0.3,0.5l0.3,0.5l0.3,0.5l0.3,0.5l0.3,0.5l0.3,0.5l0.3,0.5
		l0.3,0.5l0.3,0.5l0.3,0.5l0.3,0.5l0.3,0.5l0.3,0.5l0.3,0.5l0.3,0.5l0.3,0.5l0.3,0.5l0.3,0.5l0.3,0.5l0.3,0.5l0.3,0.5l0.3,0.5
		l0.3,0.5l0.4,0.5l0.4,0.4l0.4,0.4L20,100l0.4,0.4l0.4,0.4l0.4,0.4l0.4,0.4l0.4,0.4l0.4,0.4l0.4,0.4l0.4,0.4l0.4,0.4l0.4,0.4
		l0.4,0.4l0.4,0.4l0.4,0.4l0.4,0.4l0.4,0.4l0.4,0.4l0.4,0.4l0.4,0.4l0.1,0.1l0.4,0.4l0.4,0.4l0.4,0.4l0.4,0.4l0.4,0.4l0.5,0.4
		l0.5,0.4l0.5,0.3l0.5,0.3l0.5,0.3l0.5,0.3l0.5,0.3l0.5,0.3l0.5,0.3l0.5,0.3l0.5,0.3l0.5,0.3l0.5,0.3l0.1,0l0.5,0.3l0.5,0.3l0.5,0.3
		l0.5,0.3l0.5,0.3l0.5,0.3l0.5,0.3l0.5,0.3l0.5,0.3l0.5,0.3l0.5,0.3l0.5,0.3l0.5,0.2l0.5,0.2l0.5,0.2l0.5,0.2l0.5,0.2l0.5,0.2
		l0.5,0.2l0.5,0.2l0.4,0.2l0.5,0.2l0.5,0.2l0.5,0.2l0.5,0.1l0.5,0.1l0.5,0.1l0.5,0.1l0.5,0l0.5,0l0.2,0l0.5,0l0.5-0.1l0.5-0.1
		l0.5-0.1l0.5-0.1l0.5-0.2l0.5-0.2l0.5-0.2l0.5-0.2l0.3-0.1l0.5-0.2l0.5-0.2l0.5-0.2l0.5-0.2l0.5-0.2l0.5-0.2l0.5-0.2l0.5-0.2
		l0.5-0.3l0.5-0.3l0.5-0.3l0.5-0.3l0.5-0.3l0.5-0.3l0.5-0.3l0.5-0.3l0.5-0.3l0.5-0.3l0.5-0.3l0.5-0.3l0.5-0.3l0.5-0.3l0.5-0.3
		l0.5-0.3l0.5-0.3l0.5-0.3l0.5-0.3l0.5-0.3l0.5-0.3l0.5-0.3l0.5-0.3l0.5-0.3l0.5-0.4l0.5-0.4l0.4-0.4l0.4-0.4l0.4-0.4l0.4-0.4
		l0.4-0.4l0.4-0.4l0.4-0.4l0.4-0.4l0.4-0.4l0.4-0.4l0.4-0.4l0.4-0.4l0.2-0.2l0.4-0.4l0.4-0.4l0.4-0.4l0.4-0.4l0.4-0.4l0.4-0.4
		l0.4-0.4l0.4-0.4l0.4-0.4l0.4-0.4l0.4-0.4l0.4-0.4l0.4-0.5l0.4-0.5l0.3-0.5l0.3-0.5l0.3-0.5l0.3-0.5l0.3-0.5l0.3-0.5l0.3-0.5
		l0.3-0.5l0.3-0.5l0.3-0.5l0.3-0.5l0.3-0.5l0.3-0.5l0.3-0.5l0.3-0.5l0.3-0.5l0.3-0.5l0.3-0.5l0.3-0.5l0.3-0.5l0-0.1l0.3-0.5l0.3-0.5
		l0.3-0.5l0.2-0.5l0.2-0.5l0.2-0.5l0.2-0.5l0.2-0.5l0.2-0.5l0.2-0.5l0.2-0.5l0.2-0.5l0.2-0.5l0.2-0.5l0.2-0.5l0.2-0.5l0.2-0.5
		l0.2-0.5l0.2-0.5l0.2-0.5l0.2-0.5l0.2-0.6l0.2-0.6l0.2-0.6l0.2-0.6l0.1-0.6l0.1-0.6l0.1-0.6l0.1-0.6l0.1-0.6l0.1-0.6l0.1-0.6
		l0.1-0.6l0.1-0.6l0.1-0.4l0.1-0.5l0-0.5l0-0.6l0-0.6l0-0.6l0-0.6l0-0.6l0-0.6l0-0.6l0-0.6l0-0.6l0-0.6l0-0.6l0-0.6l0-0.6l0-0.6
		l0-0.6l0-0.6l0-1.2l0-0.6l0-0.6l0-0.6l0-0.6l0-0.6l0-1.2l0-0.6l0-0.6l0-0.6l0-0.6l0-0.6l0-0.6l0-0.6l0-0.6l0-1.2l0-1.2l0-0.6l0-1.2
		l0-1.2l0-0.6l0-1.2L96.5,14.9z"/>
</g>
</svg>
