<svg xmlns:mydata="http://www.w3.org/2000/svg" mydata:contrastcolor="393b3c" mydata:template="Contrast" mydata:presentation="2.5" mydata:layouttype="undefined" mydata:specialfontid="undefined" mydata:id1="122" mydata:id2="516" mydata:companyname="Estudio Giojelli" mydata:companytagline="" version="1.1" xmlns="http://www.w3.org/2000/svg" xmlns:xlink="http://www.w3.org/1999/xlink" viewBox="0 0 550 470"><defs><linearGradient x1="65" y1="235" x2="485" y2="235" gradientUnits="userSpaceOnUse" id="color-153134"><stop offset="0" stop-color="#ffffff"></stop><stop offset="1" stop-color="#ffffff"></stop></linearGradient></defs><g fill="url(#color-153134)" fill-rule="none" stroke="none" stroke-width="1" stroke-linecap="butt" stroke-linejoin="miter" stroke-miterlimit="10" stroke-dasharray="" stroke-dashoffset="0" font-family="none" font-weight="none" font-size="none" text-anchor="none" style="mix-blend-mode: normal"><g data-paper-data="{&quot;isGlobalGroup&quot;:true,&quot;bounds&quot;:{&quot;x&quot;:65,&quot;y&quot;:149.32560906515585,&quot;width&quot;:420,&quot;height&quot;:171.34878186968837}}"><g data-paper-data="{&quot;isPrimaryText&quot;:true}" fill-rule="nonzero"><path d="M81.04533,292.11915h-16.04533v28.04533h16.04533v-5.60907h-9.65439v-5.64306h9.24646v-5.60907h-9.24646v-5.57507h9.65439z" data-paper-data="{&quot;glyphName&quot;:&quot;E&quot;,&quot;glyphIndex&quot;:0,&quot;firstGlyphOfWord&quot;:true,&quot;word&quot;:1}"></path><path d="M102.13314,291.60924c-4.52125,0 -9.14448,3.33144 -9.14448,8.56657c0,2.92351 1.97167,5.54108 5.33711,7.2068c3.33144,1.66572 6.32295,2.58357 6.32295,4.62323c0,2.61756 -2.65156,2.75354 -4.04533,2.75354c-3.12748,0 -6.86686,-3.16147 -6.86686,-3.16147l-3.19547,5.3711c0,0 3.97734,3.70538 10.53824,3.70538c5.47309,0 10.57224,-2.34561 10.57224,-9.04249c0,-3.67139 -3.43343,-6.32295 -6.56091,-7.64873c-3.19547,-1.35977 -5.84703,-2.48159 -5.84703,-4.04533c0,-1.52975 1.15581,-2.51558 3.33144,-2.51558c2.88952,0 5.67705,1.93768 5.67705,1.93768l2.58357,-5.09915c0,0 -3.6034,-2.65156 -8.70255,-2.65156z" data-paper-data="{&quot;glyphName&quot;:&quot;S&quot;,&quot;glyphIndex&quot;:1,&quot;word&quot;:1}"></path><path d="M119.95751,297.72822h6.66289v22.43626h6.39093v-22.43626h6.66289v-5.60907h-19.71671z" data-paper-data="{&quot;glyphName&quot;:&quot;T&quot;,&quot;glyphIndex&quot;:2,&quot;word&quot;:1}"></path><path d="M171.45326,292.11915h-6.39093v16.2153c0,4.69122 -1.42776,6.05099 -4.55524,6.05099c-3.12748,0 -4.55524,-1.35977 -4.55524,-6.05099v-16.2153h-6.39093v18.08499c0,6.93484 3.80737,10.47025 10.94618,10.47025c7.13881,0 10.94618,-3.53541 10.94618,-10.47025z" data-paper-data="{&quot;glyphName&quot;:&quot;U&quot;,&quot;glyphIndex&quot;:3,&quot;word&quot;:1}"></path><path d="M189.49858,314.45343v-16.62323h0.98584c4.75921,0 7.98867,3.63739 7.98867,8.32861c-0.03399,4.69122 -3.26346,8.29462 -7.98867,8.29462zM183.10765,292.11915v28.04533h8.12465c7.71671,0 14.14164,-5.84703 14.14164,-14.03966c0,-8.15864 -6.45892,-14.00567 -14.14164,-14.00567z" data-paper-data="{&quot;glyphName&quot;:&quot;D&quot;,&quot;glyphIndex&quot;:4,&quot;word&quot;:1}"></path><path d="M222.07649,292.11915h-6.39093v28.04533h6.39093z" data-paper-data="{&quot;glyphName&quot;:&quot;I&quot;,&quot;glyphIndex&quot;:5,&quot;word&quot;:1}"></path><path d="M238.88102,306.12482c0,-4.1813 2.31161,-8.36261 7.24079,-8.36261c4.96317,0 7.2068,4.1813 7.2068,8.36261c0,4.1813 -2.10765,8.36261 -7.2068,8.36261c-5.23513,0 -7.24079,-4.1813 -7.24079,-8.36261zM231.98017,306.12482c0,8.19263 5.84703,14.54958 14.14164,14.54958c8.05666,0 14.10765,-6.35694 14.10765,-14.54958c0,-8.19263 -6.32295,-14.51558 -14.10765,-14.51558c-7.71671,0 -14.14164,6.32295 -14.14164,14.51558z" data-paper-data="{&quot;glyphName&quot;:&quot;O&quot;,&quot;glyphIndex&quot;:6,&quot;lastGlyphOfWord&quot;:true,&quot;word&quot;:1}"></path><path d="M311.85552,304.45909h-12.95184v4.92918h6.45892c0,3.43343 -3.0255,5.4051 -6.08499,5.4051c-3.94334,0 -7.13881,-3.87535 -7.13881,-8.63456c0,-4.86119 3.19547,-8.77054 7.13881,-8.77054c2.48159,0 4.62323,0.98584 6.25496,3.6034l4.1813,-4.58924c-2.44759,-2.95751 -5.88102,-4.7932 -10.8102,-4.7932c-7.88669,0 -13.66572,6.49292 -13.66572,14.54958c0,8.02266 6.11898,14.51558 13.66572,14.51558c5.50708,0 11.4221,-3.0255 12.95184,-10.13031z" data-paper-data="{&quot;glyphName&quot;:&quot;G&quot;,&quot;glyphIndex&quot;:7,&quot;firstGlyphOfWord&quot;:true,&quot;word&quot;:2}"></path><path d="M328.15014,292.11915h-6.39093v28.04533h6.39093z" data-paper-data="{&quot;glyphName&quot;:&quot;I&quot;,&quot;glyphIndex&quot;:8,&quot;word&quot;:2}"></path><path d="M344.95467,306.12482c0,-4.1813 2.31161,-8.36261 7.24079,-8.36261c4.96317,0 7.2068,4.1813 7.2068,8.36261c0,4.1813 -2.10765,8.36261 -7.2068,8.36261c-5.23513,0 -7.24079,-4.1813 -7.24079,-8.36261zM338.05382,306.12482c0,8.19263 5.84703,14.54958 14.14164,14.54958c8.05666,0 14.10765,-6.35694 14.10765,-14.54958c0,-8.19263 -6.32295,-14.51558 -14.10765,-14.51558c-7.71671,0 -14.14164,6.32295 -14.14164,14.51558z" data-paper-data="{&quot;glyphName&quot;:&quot;O&quot;,&quot;glyphIndex&quot;:9,&quot;word&quot;:2}"></path><path d="M388.41076,292.11915h-6.39093v18.49292c0,2.82153 -1.39377,3.94334 -3.22946,3.94334c-1.63173,0 -3.63739,-1.90368 -3.63739,-1.90368l-2.03966,5.33711c0,0 2.54958,2.68555 6.56091,2.68555c5.60907,0 8.73654,-2.92351 8.73654,-8.43059z" data-paper-data="{&quot;glyphName&quot;:&quot;J&quot;,&quot;glyphIndex&quot;:10,&quot;word&quot;:2}"></path><path d="M415.27762,292.11915h-16.04533v28.04533h16.04533v-5.60907h-9.65439v-5.64306h9.24646v-5.60907h-9.24646v-5.57507h9.65439z" data-paper-data="{&quot;glyphName&quot;:&quot;E&quot;,&quot;glyphIndex&quot;:11,&quot;word&quot;:2}"></path><path d="M432.4221,292.11915h-6.39093v28.04533h16.04533v-5.60907h-9.65439z" data-paper-data="{&quot;glyphName&quot;:&quot;L&quot;,&quot;glyphIndex&quot;:12,&quot;word&quot;:2}"></path><path d="M458.71105,292.11915h-6.39093v28.04533h16.04533v-5.60907h-9.65439z" data-paper-data="{&quot;glyphName&quot;:&quot;L&quot;,&quot;glyphIndex&quot;:13,&quot;word&quot;:2}"></path><path d="M485,292.11915h-6.39093v28.04533h6.39093z" data-paper-data="{&quot;glyphName&quot;:&quot;I&quot;,&quot;glyphIndex&quot;:14,&quot;lastGlyphOfWord&quot;:true,&quot;word&quot;:2}"></path></g><g data-paper-data="{&quot;initialText&quot;:&quot;e&quot;,&quot;isIcon&quot;:&quot;true&quot;,&quot;iconType&quot;:&quot;initial&quot;,&quot;iconStyle&quot;:&quot;standalone&quot;,&quot;rawInitialId&quot;:122,&quot;selectedEffects&quot;:{&quot;container&quot;:&quot;&quot;,&quot;transformation&quot;:&quot;&quot;,&quot;pattern&quot;:&quot;&quot;},&quot;disableIconEffects&quot;:&quot;true&quot;,&quot;monogramSpecial&quot;:&quot;law&quot;,&quot;bounds&quot;:{&quot;x&quot;:238.4343069469271,&quot;y&quot;:149.32560906515585,&quot;width&quot;:73.13138610614573,&quot;height&quot;:114.32294617563736},&quot;fillRule&quot;:&quot;evenodd&quot;,&quot;suitableAsStandaloneIcon&quot;:true}" fill-rule="evenodd"><path d="M238.43431,149.32561v114.32295h73.13139v-114.32295zM302.28783,227.81772c0,0.68587 0,1.76367 -0.09798,2.35155h-36.4491c0,7.74053 6.46677,10.38603 10.87594,10.38603c5.58494,0 8.03448,-1.0778 12.24768,-5.58494l12.54162,6.27081c-5.68292,9.5042 -14.89318,13.12951 -26.06306,13.12951c-15.18712,0 -27.63077,-11.95374 -27.63077,-26.55297c0,-14.69722 12.44364,-26.65095 27.63077,-26.65095c15.2851,0 26.9449,9.01429 26.9449,26.65095zM275.83284,212.43464c-5.97687,0 -9.30824,3.52733 -9.60218,8.13246h19.10638c-0.78385,-5.291 -4.40916,-8.13246 -9.5042,-8.13246z" data-paper-data="{&quot;isPathIcon&quot;:true}"></path></g></g></g></svg>