<svg xmlns:mydata="http://www.w3.org/2000/svg" mydata:contrastcolor="ffffff" mydata:template="Default" mydata:presentation="2.5" mydata:layouttype="undefined" mydata:specialfontid="undefined" mydata:id1="001" mydata:id2="020" mydata:companyname="Estudio Giojelli" mydata:companytagline="&amp; Asociados" version="1.1" xmlns="http://www.w3.org/2000/svg" xmlns:xlink="http://www.w3.org/1999/xlink" viewBox="0 0 550 470"><g fill="#003c71" fill-rule="nonzero" stroke="none" stroke-width="1" stroke-linecap="butt" stroke-linejoin="miter" stroke-miterlimit="10" stroke-dasharray="" stroke-dashoffset="0" font-family="none" font-weight="none" font-size="none" text-anchor="none" style="mix-blend-mode: normal"><g data-paper-data="{&quot;isGlobalGroup&quot;:true,&quot;bounds&quot;:{&quot;x&quot;:68.29518541205803,&quot;y&quot;:174.865635840383,&quot;width&quot;:413.409629175884,&quot;height&quot;:120.26872831923401}}"><g data-paper-data="{&quot;isSecondaryText&quot;:true}"><path d="M219.69004,281.75021c0,-0.59502 0.14001,-1.14504 0.42002,-1.65006c0.28001,-0.50502 0.83003,-0.98254 1.65006,-1.43256c-0.67503,-0.84003 -1.01254,-1.54756 -1.01254,-2.12258c0,-0.63502 0.22751,-1.18005 0.68253,-1.63506c0.45502,-0.45502 1.00004,-0.68253 1.63506,-0.68253c0.65503,0 1.20755,0.21751 1.65757,0.65253c0.45002,0.43502 0.67503,0.97004 0.67503,1.60506c0,0.54502 -0.14751,1.00379 -0.44252,1.3763c-0.29501,0.37251 -0.77503,0.75378 -1.44006,1.14379l2.22759,2.6551c0.28501,-0.50002 0.49252,-1.01254 0.62252,-1.53756h1.00504c-0.16501,0.88503 -0.46752,1.69007 -0.90754,2.41509l1.70257,2.04008h-1.44006l-0.93754,-1.14004c-0.81003,0.84003 -1.77257,1.26005 -2.88761,1.26005c-0.55502,0 -1.05004,-0.09625 -1.48506,-0.28876c-0.43502,-0.19251 -0.77003,-0.44502 -1.00504,-0.75753c-0.23501,-0.31251 -0.41377,-0.63002 -0.53627,-0.95254c-0.1225,-0.32251 -0.18376,-0.63878 -0.18376,-0.94879zM220.77759,281.7202c0,0.16501 0.03125,0.34251 0.09375,0.53252c0.0625,0.19001 0.16751,0.39502 0.31501,0.61502c0.14751,0.22001 0.37251,0.40127 0.67503,0.54377c0.30251,0.14251 0.66378,0.21376 1.08379,0.21376c0.86003,0 1.58756,-0.32251 2.18259,-0.96754l-2.67761,-3.21013c-0.39002,0.20501 -0.71003,0.41752 -0.96004,0.63753c-0.25001,0.22001 -0.42127,0.43752 -0.51377,0.65253c-0.0925,0.21501 -0.14876,0.38377 -0.16876,0.50627c-0.02,0.1225 -0.03,0.28126 -0.03,0.47627zM221.82013,276.56c0,0.36001 0.32251,0.89254 0.96754,1.59756c0.65503,-0.35001 1.08254,-0.64003 1.28255,-0.87003c0.20001,-0.23001 0.30001,-0.49252 0.30001,-0.78753c0,-0.34001 -0.1225,-0.62002 -0.36751,-0.84003c-0.24501,-0.22001 -0.54752,-0.33001 -0.90754,-0.33001c-0.35001,0 -0.65003,0.12 -0.90004,0.36001c-0.25001,0.24001 -0.37501,0.53002 -0.37501,0.87003z" data-paper-data="{&quot;glyphName&quot;:&quot;&amp;&quot;,&quot;glyphIndex&quot;:0,&quot;lastGlyphOfWord&quot;:true,&quot;firstGlyphOfWord&quot;:true,&quot;word&quot;:1}"></path><path d="M240.80221,284.57782l4.08766,-10.2454h1.10254l4.07266,10.2454h-1.18505l-1.23005,-3.19513h-4.41767l-1.23005,3.19513zM243.64483,280.32515h3.59264l-1.79257,-4.68768z" data-paper-data="{&quot;glyphName&quot;:&quot;A&quot;,&quot;glyphIndex&quot;:1,&quot;firstGlyphOfWord&quot;:true,&quot;word&quot;:2}"></path><path d="M254.75209,277.04752c0,-0.79003 0.28626,-1.46256 0.85878,-2.01758c0.57252,-0.55502 1.46381,-0.83253 2.67386,-0.83253c0.87003,0 1.72507,0.20251 2.5651,0.60752v1.14004c-0.76003,-0.43002 -1.58006,-0.64503 -2.4601,-0.64503c-0.82003,0 -1.44756,0.15001 -1.88257,0.45002c-0.43502,0.30001 -0.65253,0.73253 -0.65253,1.29755c0,0.35001 0.14126,0.64253 0.42377,0.87753c0.28251,0.23501 0.63127,0.40877 1.04629,0.52127c0.41502,0.1125 0.86878,0.25626 1.3613,0.43127c0.49252,0.17501 0.94504,0.36501 1.35755,0.57002c0.41252,0.20501 0.76003,0.52252 1.04254,0.95254c0.28251,0.43002 0.42377,0.95254 0.42377,1.56756c0,0.85003 -0.32001,1.51756 -0.96004,2.00258c-0.64003,0.48502 -1.53256,0.72753 -2.67761,0.72753c-1.11504,0 -2.12508,-0.24001 -3.03012,-0.72003v-1.20005c0.81003,0.54502 1.79257,0.81753 2.94762,0.81753c1.74007,0 2.6126,-0.54252 2.6176,-1.62756c0,-0.46002 -0.14126,-0.84628 -0.42377,-1.1588c-0.28251,-0.31251 -0.63127,-0.54127 -1.04629,-0.68628l-1.35755,-0.45002c-0.49002,-0.16001 -0.94254,-0.32251 -1.35755,-0.48752c-0.41502,-0.16501 -0.76378,-0.42877 -1.04629,-0.79128c-0.28251,-0.36251 -0.42377,-0.81128 -0.42377,-1.3463z" data-paper-data="{&quot;glyphName&quot;:&quot;S&quot;,&quot;glyphIndex&quot;:2,&quot;word&quot;:2}"></path><path d="M271.24867,284.69782c-3.16512,0 -4.74769,-1.75007 -4.74769,-5.25021c0,-3.50014 1.58256,-5.25021 4.74769,-5.25021c3.17512,0 4.76269,1.75007 4.76269,5.25021c0,3.50014 -1.58756,5.25021 -4.76269,5.25021zM268.48106,276.25249c0,0 -0.14626,0.16876 -0.43877,0.50627c-0.29251,0.33751 -0.43877,1.2338 -0.43877,2.68886c0,1.45506 0.29251,2.5201 0.87753,3.19513c0.58502,0.67503 1.50756,1.01254 2.76761,1.01254c1.27005,0 2.19634,-0.33751 2.77886,-1.01254c0.58252,-0.67503 0.87378,-1.74007 0.87378,-3.19513c0,-1.45506 -0.29126,-2.5201 -0.87378,-3.19513c-0.58252,-0.67503 -1.50881,-1.01254 -2.77886,-1.01254c-1.26005,0 -2.18259,0.33751 -2.76761,1.01254z" data-paper-data="{&quot;glyphName&quot;:&quot;O&quot;,&quot;glyphIndex&quot;:3,&quot;word&quot;:2}"></path><path d="M285.81613,284.69782c-3.16512,0 -4.74769,-1.75007 -4.74769,-5.25021c0,-3.50014 1.58256,-5.25021 4.74769,-5.25021c1.09504,0 2.13508,0.19751 3.12012,0.59252v1.06504c-0.97504,-0.41002 -1.97508,-0.61502 -3.00012,-0.61502c-1.30005,0 -2.25259,0.33751 -2.85761,1.01254c-0.60502,0.67503 -0.90754,1.74007 -0.90754,3.19513c0,1.45506 0.30251,2.5201 0.90754,3.19513c0.60502,0.67503 1.55756,1.01254 2.85761,1.01254c1.04504,0 2.04508,-0.20001 3.00012,-0.60002v1.06504c-0.98004,0.38502 -2.00758,0.57752 -3.08262,0.57752c-0.015,0 -0.0275,0 -0.0375,0z" data-paper-data="{&quot;glyphName&quot;:&quot;C&quot;,&quot;glyphIndex&quot;:4,&quot;word&quot;:2}"></path><path d="M294.40703,284.57782v-10.2454h1.11004v10.2454z" data-paper-data="{&quot;glyphName&quot;:&quot;I&quot;,&quot;glyphIndex&quot;:5,&quot;word&quot;:2}"></path><path d="M300.54022,284.57782l4.08766,-10.2454h1.10254l4.07266,10.2454h-1.18505l-1.23005,-3.19513h-4.41767l-1.23005,3.19513zM303.38284,280.32515h3.59264l-1.79257,-4.68768z" data-paper-data="{&quot;glyphName&quot;:&quot;A&quot;,&quot;glyphIndex&quot;:6,&quot;word&quot;:2}"></path><path d="M314.86728,284.57782v-10.2454h3.21013c3.20513,0 4.80769,1.70507 4.80769,5.1152c0,3.42013 -1.60256,5.1302 -4.80769,5.1302zM315.97732,283.53528h2.02508c1.31005,0 2.26759,-0.32751 2.87261,-0.98254c0.60502,-0.65503 0.90754,-1.69007 0.90754,-3.10512c0,-1.41506 -0.30251,-2.4501 -0.90754,-3.10512c-0.60502,-0.65503 -1.56256,-0.98254 -2.87261,-0.98254h-2.02508z" data-paper-data="{&quot;glyphName&quot;:&quot;D&quot;,&quot;glyphIndex&quot;:7,&quot;word&quot;:2}"></path><path d="M332.84205,284.69782c-3.16512,0 -4.74769,-1.75007 -4.74769,-5.25021c0,-3.50014 1.58256,-5.25021 4.74769,-5.25021c3.17512,0 4.76269,1.75007 4.76269,5.25021c0,3.50014 -1.58756,5.25021 -4.76269,5.25021zM330.07444,276.25249c0,0 -0.14626,0.16876 -0.43877,0.50627c-0.29251,0.33751 -0.43877,1.2338 -0.43877,2.68886c0,1.45506 0.29251,2.5201 0.87753,3.19513c0.58502,0.67503 1.50756,1.01254 2.76761,1.01254c1.27005,0 2.19634,-0.33751 2.77886,-1.01254c0.58252,-0.67503 0.87378,-1.74007 0.87378,-3.19513c0,-1.45506 -0.29126,-2.5201 -0.87378,-3.19513c-0.58252,-0.67503 -1.50881,-1.01254 -2.77886,-1.01254c-1.26005,0 -2.18259,0.33751 -2.76761,1.01254z" data-paper-data="{&quot;glyphName&quot;:&quot;O&quot;,&quot;glyphIndex&quot;:8,&quot;word&quot;:2}"></path><path d="M342.78519,277.04752c0,-0.79003 0.28626,-1.46256 0.85878,-2.01758c0.57252,-0.55502 1.46381,-0.83253 2.67386,-0.83253c0.87003,0 1.72507,0.20251 2.5651,0.60752v1.14004c-0.76003,-0.43002 -1.58006,-0.64503 -2.4601,-0.64503c-0.82003,0 -1.44756,0.15001 -1.88257,0.45002c-0.43502,0.30001 -0.65253,0.73253 -0.65253,1.29755c0,0.35001 0.14126,0.64253 0.42377,0.87753c0.28251,0.23501 0.63127,0.40877 1.04629,0.52127c0.41502,0.1125 0.86878,0.25626 1.3613,0.43127c0.49252,0.17501 0.94504,0.36501 1.35755,0.57002c0.41252,0.20501 0.76003,0.52252 1.04254,0.95254c0.28251,0.43002 0.42377,0.95254 0.42377,1.56756c0,0.85003 -0.32001,1.51756 -0.96004,2.00258c-0.64003,0.48502 -1.53256,0.72753 -2.67761,0.72753c-1.11504,0 -2.12508,-0.24001 -3.03012,-0.72003v-1.20005c0.81003,0.54502 1.79257,0.81753 2.94762,0.81753c1.74007,0 2.6126,-0.54252 2.6176,-1.62756c0,-0.46002 -0.14126,-0.84628 -0.42377,-1.1588c-0.28251,-0.31251 -0.63127,-0.54127 -1.04629,-0.68628l-1.35755,-0.45002c-0.49002,-0.16001 -0.94254,-0.32251 -1.35755,-0.48752c-0.41502,-0.16501 -0.76378,-0.42877 -1.04629,-0.79128c-0.28251,-0.36251 -0.42377,-0.81128 -0.42377,-1.3463z" data-paper-data="{&quot;glyphName&quot;:&quot;S&quot;,&quot;glyphIndex&quot;:9,&quot;lastGlyphOfWord&quot;:true,&quot;word&quot;:2}"></path></g><g data-paper-data="{&quot;stacked&quot;:true,&quot;isPrimaryText&quot;:true}"><path d="M237.76677,214.96054v-5.4778h-12.01203v-7.27764h10.95559v-5.4778h-10.95559v-5.43867h9.42964v-5.4778h-15.49434v29.14971z" data-paper-data="{&quot;glyphName&quot;:&quot;E&quot;,&quot;glyphIndex&quot;:0,&quot;firstGlyphOfWord&quot;:true,&quot;word&quot;:1,&quot;line&quot;:1,&quot;firstGlyphOfFirstLine&quot;:true}"></path><path d="M261.34086,202.04859c2.81715,0.31302 4.38224,1.76072 4.38224,4.10835c0,1.8781 -1.56508,3.48231 -3.56057,3.48231c-1.72159,0 -3.09104,-0.4304 -4.42136,-2.11286l-5.00827,3.67795c2.77803,3.05192 6.10383,4.26486 9.42964,4.26486c5.12565,0 9.86003,-4.06922 9.86003,-9.74265c0,-5.63431 -4.10835,-8.99924 -9.07749,-9.31226c-3.09104,-0.19564 -4.06922,-1.40858 -4.06922,-2.7389c0,-1.60421 1.09556,-2.58239 2.69977,-2.58239c1.01731,0 2.3085,0.62603 3.09104,1.4477l4.77351,-3.48231c-2.23025,-2.66064 -4.96914,-3.7562 -7.86455,-3.7562c-4.03009,0 -8.56884,3.48231 -8.56884,8.41233c0,4.57787 3.28668,7.74717 8.33408,8.33408z" data-paper-data="{&quot;glyphName&quot;:&quot;S&quot;,&quot;glyphIndex&quot;:1,&quot;word&quot;:1,&quot;line&quot;:1}"></path><path d="M297.47476,214.96054v-23.67191h7.66892v-5.4778h-20.93301v5.4778h7.19939v23.67191z" data-paper-data="{&quot;glyphName&quot;:&quot;T&quot;,&quot;glyphIndex&quot;:2,&quot;word&quot;:1,&quot;line&quot;:1}"></path><path d="M333.21739,215.46919c7.7863,0 12.52068,-5.00827 12.52068,-13.49886v-16.1595h-6.0647v16.66815c0,4.38224 -1.95636,7.16026 -6.45598,7.16026c-4.30398,0 -6.53423,-2.58239 -6.53423,-7.16026v-16.66815h-6.0647v15.65085c0,8.09931 4.06922,14.00751 12.59893,14.00751z" data-paper-data="{&quot;glyphName&quot;:&quot;U&quot;,&quot;glyphIndex&quot;:3,&quot;word&quot;:1,&quot;line&quot;:1}"></path><path d="M363.24745,185.81083v29.14971h11.85552c8.3732,0 15.22045,-6.22121 15.22045,-14.59442c0,-8.29495 -6.84725,-14.55529 -15.25958,-14.55529zM369.31216,209.48274v-18.19411h5.75169c5.08653,0 9.03837,3.79533 9.03837,9.07749c0,5.24303 -3.95184,9.11662 -8.99924,9.11662z" data-paper-data="{&quot;glyphName&quot;:&quot;D&quot;,&quot;glyphIndex&quot;:4,&quot;word&quot;:1,&quot;line&quot;:1}"></path><path d="M412.95846,185.81083h-6.0647v29.14971h6.0647z" data-paper-data="{&quot;glyphName&quot;:&quot;I&quot;,&quot;glyphIndex&quot;:5,&quot;word&quot;:1,&quot;line&quot;:1}"></path><path d="M444.63187,215.46919c8.33408,0 15.06394,-6.76899 15.06394,-15.10307c0,-8.33408 -6.72986,-15.06394 -15.10307,-15.06394c-8.33408,0 -15.06394,6.72986 -15.06394,15.06394c0,8.33408 6.72986,15.10307 15.10307,15.10307zM444.59274,191.09299c4.93002,0 8.88186,4.14747 8.88186,9.27313c0,5.20391 -3.91271,9.27313 -8.84273,9.27313c-5.00827,0 -8.88186,-4.06922 -8.88186,-9.27313c0,-5.12565 3.87359,-9.27313 8.84273,-9.27313z" data-paper-data="{&quot;glyphName&quot;:&quot;O&quot;,&quot;glyphIndex&quot;:6,&quot;lastGlyphOfWord&quot;:true,&quot;word&quot;:1,&quot;line&quot;:1,&quot;lastGlyphOfFirstLine&quot;:true}"></path><path d="M249.7788,242.37167h-14.94656v5.39954h7.90368c-1.2912,3.40406 -4.53875,5.20391 -8.06019,5.20391c-4.89089,0 -8.76448,-4.10835 -8.76448,-9.234c0,-5.16478 3.87359,-9.31226 8.76448,-9.31226c3.44319,0 6.45598,1.95636 7.98193,4.81264l4.85176,-3.52144c-2.62152,-4.26486 -7.43415,-7.08201 -12.87282,-7.08201c-8.29495,0 -14.94656,6.76899 -14.94656,15.10307c0,8.33408 6.65161,15.06394 14.98569,15.06394c8.3732,0 15.10307,-6.9255 15.10307,-15.53347z" data-paper-data="{&quot;glyphName&quot;:&quot;G&quot;,&quot;glyphIndex&quot;:7,&quot;firstGlyphOfWord&quot;:true,&quot;word&quot;:2,&quot;line&quot;:2,&quot;firstGlyphOfSecondLine&quot;:true}"></path><path d="M272.33559,229.14671h-6.0647v29.14971h6.0647z" data-paper-data="{&quot;glyphName&quot;:&quot;I&quot;,&quot;glyphIndex&quot;:8,&quot;word&quot;:2,&quot;line&quot;:2}"></path><path d="M304.00899,258.80507c8.33408,0 15.06394,-6.76899 15.06394,-15.10307c0,-8.33408 -6.72986,-15.06394 -15.10307,-15.06394c-8.33408,0 -15.06394,6.72986 -15.06394,15.06394c0,8.33408 6.72986,15.10307 15.10307,15.10307zM303.96986,234.42887c4.93002,0 8.88186,4.14747 8.88186,9.27313c0,5.20391 -3.91271,9.27313 -8.84273,9.27313c-5.00827,0 -8.88186,-4.06922 -8.88186,-9.27313c0,-5.12565 3.87359,-9.27313 8.84273,-9.27313z" data-paper-data="{&quot;glyphName&quot;:&quot;O&quot;,&quot;glyphIndex&quot;:9,&quot;word&quot;:2,&quot;line&quot;:2}"></path><path d="M345.46418,229.14671v5.4778h5.16478v10.64258c0,3.87359 -2.19112,7.70804 -6.61248,7.70804c-1.91723,0 -5.36042,-0.54778 -6.53423,-5.24303l-5.55605,1.68247c1.48683,6.45598 6.14296,9.39051 12.05115,9.39051c8.41233,0 12.71631,-6.22121 12.71631,-13.53798v-16.12037z" data-paper-data="{&quot;glyphName&quot;:&quot;J&quot;,&quot;glyphIndex&quot;:10,&quot;word&quot;:2,&quot;line&quot;:2}"></path><path d="M392.27978,258.29641v-5.4778h-12.01203v-7.27764h10.95559v-5.4778h-10.95559v-5.43867h9.42964v-5.4778h-15.49434v29.14971z" data-paper-data="{&quot;glyphName&quot;:&quot;E&quot;,&quot;glyphIndex&quot;:11,&quot;word&quot;:2,&quot;line&quot;:2}"></path><path d="M408.85011,229.14671v29.14971h17.80284v-5.4778h-11.73814v-23.67191z" data-paper-data="{&quot;glyphName&quot;:&quot;L&quot;,&quot;glyphIndex&quot;:12,&quot;word&quot;:2,&quot;line&quot;:2}"></path><path d="M442.24511,229.14671v29.14971h17.80284v-5.4778h-11.73814v-23.67191z" data-paper-data="{&quot;glyphName&quot;:&quot;L&quot;,&quot;glyphIndex&quot;:13,&quot;word&quot;:2,&quot;line&quot;:2}"></path><path d="M481.70481,229.14671h-6.0647v29.14971h6.0647z" data-paper-data="{&quot;glyphName&quot;:&quot;I&quot;,&quot;glyphIndex&quot;:14,&quot;lastGlyphOfWord&quot;:true,&quot;word&quot;:2,&quot;line&quot;:2,&quot;lastGlyphOfSecondLine&quot;:true}"></path></g><g data-paper-data="{&quot;fillRule&quot;:&quot;nonzero&quot;,&quot;isIcon&quot;:&quot;true&quot;,&quot;iconStyle&quot;:&quot;standalone&quot;,&quot;selectedEffects&quot;:{&quot;container&quot;:&quot;shield_simple_filledplus&quot;,&quot;transformation&quot;:&quot;&quot;,&quot;pattern&quot;:&quot;&quot;},&quot;bounds&quot;:{&quot;x&quot;:68.29518541205803,&quot;y&quot;:174.865635840383,&quot;width&quot;:96.92529248704912,&quot;height&quot;:120.26872831923401},&quot;widthRatioIconToContainer&quot;:&quot;0.7701877452732018&quot;,&quot;heightRatioIconToContainer&quot;:&quot;0.4859338497667741&quot;,&quot;relativeBoundsIconToContainer&quot;:{&quot;top&quot;:&quot;-0.10141962032696344&quot;,&quot;left&quot;:&quot;0.001371451939585315&quot;},&quot;iconType&quot;:&quot;icon&quot;,&quot;rawIconId&quot;:&quot;7728&quot;,&quot;isDetailed&quot;:&quot;false&quot;,&quot;blockLetter&quot;:&quot;V&quot;,&quot;suitableAsStandaloneIcon&quot;:true}"><path d="M113.72377,287.69177c-2.65886,-1.04941 -7.57328,-3.48718 -10.12338,-5.02166c-4.95059,-2.97893 -11.03057,-8.19051 -14.8088,-12.69367c-6.93234,-8.26245 -12.29447,-20.34878 -13.51369,-30.46008c-0.35728,-2.96299 -0.38397,-50.75024 -0.02904,-51.98781c0.2838,-0.98954 1.08862,-1.93289 2.0963,-2.45712c0.78746,-0.40966 6.53486,-1.28133 14.61332,-2.2163c9.80498,-1.13479 12.94454,-1.29547 25.18192,-1.2888c12.67199,0.0069 16.35267,0.22639 27.71277,1.65252c11.35858,1.42594 11.95825,1.5754 13.09627,3.26412l0.5703,0.84627v26.11035c0,17.55486 -0.08932,26.60241 -0.2726,27.61206c-2.28659,12.59654 -8.16961,24.02622 -16.79854,32.63666c-5.88969,5.87705 -13.06436,10.5942 -20.89155,13.73561c-3.18963,1.28014 -4.17097,1.31861 -6.83329,0.26784zM138.37024,204.17507c-0.00212,0.00001 -0.91121,0.00301 -2.02136,0.00301h-15.09252c-1.10694,0 -2.0176,-0.91367 -2.0176,-2.02813v-6.55137c0,-1.10994 -0.90691,-2.0176 -2.02061,-2.0176h-0.66025c-1.11145,0 -2.02136,0.90766 -2.02136,2.0176v6.55137c0,1.11446 -0.90314,2.02813 -2.0176,2.02813h-15.08425c-1.11371,0 -2.02136,-0.00301 -2.02136,-0.00301v0.00301c0,0 -0.3572,0.82494 -0.80313,1.8499l-14.81052,34.61278c-0.43917,1.02422 -0.24289,2.58235 0.43841,3.45992c0,0 6.11296,7.92301 15.17524,7.92301c9.06228,0 15.17448,-7.92301 15.17448,-7.92301c0.67529,-0.87758 0.87908,-2.43496 0.44368,-3.45992l-13.56521,-31.6815c-0.43916,-1.0182 0.1143,-1.85592 1.22801,-1.85592h36.40177c1.10468,0 1.6604,0.83847 1.22049,1.85592l-13.56296,31.6815c-0.42864,1.02422 -0.23537,2.58235 0.44293,3.45992c0,0 6.1122,7.92301 15.17448,7.92301c9.06303,0 15.17599,-7.92301 15.17599,-7.92301c0.67379,-0.87758 0.87381,-2.43496 0.43841,-3.45992l-14.81804,-34.61653c-0.43237,-1.02414 -0.79706,-1.84904 -0.79711,-1.84915zM137.57838,213.95775c0.43089,-1.02121 1.15581,-1.02121 1.58821,0l10.74073,25.11208c0.44217,1.02046 -0.11055,1.85743 -1.22199,1.85743h-20.62945c-1.1137,0 -1.66416,-0.83622 -1.22575,-1.85743zM94.6102,214.01791c0.44668,-1.00993 1.15356,-1.00993 1.59648,0l10.69787,24.9865c0.43164,1.02196 -0.11732,1.86194 -1.22801,1.86194h-20.52417c-1.11069,0 -1.66416,-0.83922 -1.22123,-1.86194zM165.22023,213.81672v0.58719l-0.00079,1.76237l-0.00053,0.58772l-0.00053,0.58745l-0.00239,1.76237l-0.00106,0.58772l-0.00265,1.17491l-0.00133,0.58772l-0.00159,0.58745l-0.00186,0.58772l-0.00186,0.58745l-0.00425,1.17544l-0.00239,0.58772l-0.00265,0.58745l-0.00265,0.58772l-0.00318,0.58772l-0.00318,0.58799l-0.00345,0.58772l-0.00372,0.58772l-0.00398,0.58799l-0.00425,0.58799l-0.00451,0.58772l-0.00504,0.58825l-0.0053,0.58799l-0.00557,0.58799l-0.0061,0.58825l-0.00637,0.58825l-0.00716,0.58852l-0.00743,0.58852l-0.00823,0.58878l-0.00902,0.58878l-0.00955,0.58905l-0.01061,0.58931l-0.01167,0.58958l-0.013,0.59011l-0.01459,0.5909l-0.01645,0.5917l-0.01884,0.59276l-0.02282,0.59515l-0.02786,0.59913l-0.03821,0.60842c-0.00124,0.02158 -0.0031,0.04316 -0.00557,0.06474l-0.06368,0.58347c-0.00372,0.03467 -0.00876,0.06908 -0.01512,0.10321l-0.0857,0.46328l-0.11277,0.58666l-0.11781,0.58719l-0.12285,0.58587l-0.12763,0.58533l-0.1324,0.58401l-0.13718,0.58294l-0.14195,0.58188l-0.147,0.58082l-0.15204,0.5795l-0.15681,0.57817l-0.16159,0.57711l-0.16663,0.57552l-0.17141,0.57419l-0.17645,0.57286l-0.18123,0.57101l-0.186,0.56968l-0.19104,0.56808l-0.19609,0.5665l-0.2006,0.5649l-0.2059,0.56304l-0.21041,0.56119l-0.21546,0.55933l-0.22023,0.55747l-0.225,0.55561l-0.22978,0.55376l-0.23456,0.55164l-0.23934,0.54951l-0.24411,0.54739l-0.24862,0.54553l-0.25366,0.54315l-0.25818,0.54076l-0.26269,0.53864l-0.26746,0.53651l-0.27197,0.53412l-0.0406,0.07907l-0.27489,0.52669l-0.28179,0.52908l-0.2863,0.52669l-0.29081,0.52431l-0.29558,0.52165l-0.30036,0.519l-0.3046,0.51661l-0.30938,0.51369l-0.31416,0.51104l-0.31867,0.50838l-0.32318,0.50547l-0.32796,0.50255l-0.3322,0.49963l-0.33698,0.49645l-0.34149,0.49352l-0.346,0.49034l-0.35078,0.48716l-0.35502,0.48397l-0.35953,0.48079l-0.36404,0.47734l-0.36829,0.47389l-0.3728,0.47071l-0.37731,0.46699l-0.38155,0.46354l-0.3858,0.46009l-0.39004,0.45638l-0.39429,0.45266l-0.39853,0.44895l-0.40278,0.44524l-0.40703,0.44152l-0.41074,0.4378l-0.41499,0.43383l-0.41897,0.42985l-0.42295,0.42613l-0.21413,0.2128l-0.4256,0.41738l-0.43117,0.41605l-0.43489,0.4126l-0.4386,0.40862l-0.44178,0.4049l-0.4455,0.40092l-0.44895,0.39721l-0.45266,0.3935l-0.45585,0.38925l-0.45929,0.38553l-0.46275,0.38129l-0.46593,0.37731l-0.46938,0.37333l-0.47257,0.36908l-0.47601,0.36484l-0.47893,0.36059l-0.48238,0.35662l-0.48557,0.3521l-0.48848,0.34785l-0.4914,0.34361l-0.49485,0.3391l-0.4975,0.33485l-0.50043,0.33034l-0.50361,0.32583l-0.50626,0.32132l-0.50892,0.31708l-0.51183,0.3123l-0.51449,0.30806l-0.51714,0.30328l-0.52006,0.29904l-0.52218,0.29426l-0.52484,0.28948l-0.52749,0.28524l-0.52961,0.28046l-0.53227,0.27595l-0.53439,0.27144l-0.53678,0.26667l-0.5389,0.26215l-0.54102,0.25738l-0.54315,0.25287l-0.54527,0.24836l-0.54739,0.24358l-0.54924,0.23907l-0.5511,0.23456l-0.55296,0.23004l-0.55482,0.22527l-0.28311,0.11223l-0.56729,0.21598l-0.58029,0.20723c-0.01026,0.00372 -0.02052,0.00725 -0.03078,0.01061l-0.55747,0.18467c-0.01185,0.00389 -0.0237,0.00761 -0.03556,0.01114l-0.56198,0.16981c-0.01379,0.00425 -0.0276,0.00823 -0.04139,0.01194l-0.56703,0.15257c-0.0161,0.00425 -0.03228,0.00832 -0.04856,0.01221l-0.57206,0.1324c-0.0191,0.00442 -0.03838,0.0084 -0.05784,0.01194l-0.57711,0.10852c-0.02317,0.00425 -0.04644,0.00796 -0.06979,0.01114l-0.58188,0.07934c-0.02848,0.00389 -0.05705,0.0069 -0.0857,0.00902l-0.5856,0.04351c-0.023,0.00177 -0.04599,0.00292 -0.06899,0.00345l-0.23429,0.00584c-0.02176,0.00053 -0.0436,0.00062 -0.06554,0.00026l-0.58692,-0.01247c-0.02848,-0.00071 -0.05696,-0.00221 -0.08544,-0.00451l-0.58533,-0.04802c-0.02547,-0.00212 -0.05086,-0.00486 -0.07615,-0.00823l-0.58162,-0.07986c-0.02264,-0.00301 -0.0452,-0.00663 -0.06766,-0.01088l-0.57711,-0.10799c-0.02016,-0.00372 -0.04024,-0.00787 -0.06023,-0.01247l-0.5718,-0.13293c-0.01787,-0.00407 -0.03564,-0.00849 -0.05333,-0.01327l-0.56623,-0.15522c-0.01592,-0.00425 -0.03175,-0.00885 -0.04749,-0.01379l-0.56066,-0.17486c-0.01415,-0.00442 -0.02831,-0.00902 -0.04245,-0.01379l-0.55482,-0.19237c-0.01274,-0.00442 -0.02538,-0.00902 -0.03794,-0.01379l-0.54898,-0.20829l-0.43595,-0.17327l-0.55349,-0.22527l-0.55296,-0.23031l-0.55084,-0.23509l-0.54898,-0.23934l-0.54713,-0.24385l-0.54473,-0.24836l-0.54288,-0.25287l-0.54049,-0.25711l-0.53864,-0.26162l-0.53624,-0.2656l-0.53412,-0.27011l-0.532,-0.27436l-0.52961,-0.27834l-0.52749,-0.28258l-0.5251,-0.28656l-0.52271,-0.29055l-0.52059,-0.29479l-0.5182,-0.2985l-0.51582,-0.30248l-0.51343,-0.3062l-0.06076,-0.03662l-0.50918,-0.31177l-0.51157,-0.32132l-0.50732,-0.32716l-0.50308,-0.33247l-0.49883,-0.33751l-0.49512,-0.34229l-0.49114,-0.34706l-0.48743,-0.35131l-0.48371,-0.35555l-0.47999,-0.3598l-0.47668,-0.36351l-0.47325,-0.36749l-0.46994,-0.37094l-0.46673,-0.37439l-0.46357,-0.37757l-0.46052,-0.38102l-0.45754,-0.38394l-0.45463,-0.38713l-0.09961,-0.08544l-0.44845,-0.38819l-0.44871,-0.39376l-0.44611,-0.39721l-0.44338,-0.40092l-0.44056,-0.40437l-0.43759,-0.40782l-0.43457,-0.4118l-0.43136,-0.41552l-0.42807,-0.4195l-0.42459,-0.42348l-0.42098,-0.42772l-0.41724,-0.43197l-0.41329,-0.43648l-0.40917,-0.44073l-0.4049,-0.4455l-0.40042,-0.45027l-0.39567,-0.45506l-0.39076,-0.46009l-0.2517,-0.30195l-0.37969,-0.46328l-0.37654,-0.46911l-0.37171,-0.47283l-0.36691,-0.47655l-0.36208,-0.47999l-0.3573,-0.48318l-0.3525,-0.48689l-0.34772,-0.48981l-0.34295,-0.49326l-0.33817,-0.49645l-0.33345,-0.49936l-0.32875,-0.50228l-0.32403,-0.5052l-0.31936,-0.50812l-0.31469,-0.51051l-0.31007,-0.51343l-0.30548,-0.51608l-0.30089,-0.51873l-0.29635,-0.52085l-0.29184,-0.52351l-0.28736,-0.52563l-0.2829,-0.52802l-0.27849,-0.53015l-0.27409,-0.53227l-0.26979,-0.53412l-0.26545,-0.53651l-0.2612,-0.5381l-0.25695,-0.54022l-0.25276,-0.54208l-0.2486,-0.54368l-0.24448,-0.54553l-0.00592,-0.01327l-0.2383,-0.54288l-0.23628,-0.54898l-0.23212,-0.5511l-0.22792,-0.55322l-0.22363,-0.55508l-0.21925,-0.55694l-0.21473,-0.5588l-0.21018,-0.56092l-0.2055,-0.56278l-0.20073,-0.56464l-0.1959,-0.56676l-0.19091,-0.56835l-0.18584,-0.57047l-0.18068,-0.57233l-0.17541,-0.57419l-0.17003,-0.57605l-0.16455,-0.5779l-0.15895,-0.5795l-0.15325,-0.58135l-0.14743,-0.58321l-0.1415,-0.5848l-0.13546,-0.58639l-0.12931,-0.58825l-0.12305,-0.58958l-0.11666,-0.59117l-0.11017,-0.59276l-0.10356,-0.59409l-0.09683,-0.59542l-0.09,-0.59674l-0.08305,-0.59807l-0.07598,-0.59913c-0.0016,-0.01256 -0.00302,-0.02521 -0.00428,-0.03794l-0.02599,-0.26189c-0.00152,-0.01521 -0.00278,-0.03051 -0.00379,-0.0459l-0.03892,-0.58587l-0.0293,-0.61346l-0.02268,-0.60045l-0.0188,-0.59542l-0.01614,-0.59329l-0.01416,-0.5917l-0.0126,-0.59064l-0.01134,-0.59011l-0.01029,-0.58958l-0.00939,-0.58931l-0.00862,-0.58905l-0.00794,-0.58878l-0.00735,-0.58852l-0.00681,-0.58852l-0.00633,-0.58852l-0.00589,-0.58825l-0.0055,-0.58799l-0.00514,-0.58825l-0.0048,-0.58799l-0.00449,-0.58799l-0.0042,-0.58799l-0.00393,-0.58772l-0.00367,-0.58799l-0.00344,-0.58772l-0.00322,-0.58772l-0.00301,-0.58772l-0.00281,-0.58772l-0.00262,-0.58772l-0.00245,-0.58772l-0.00228,-0.58745l-0.00212,-0.58772l-0.00197,-0.58772l-0.00182,-0.58745l-0.00168,-0.58772l-0.00155,-0.58745l-0.00141,-0.58745l-0.00129,-0.58772l-0.00117,-0.58745l-0.00106,-0.58745l-0.00095,-0.58745l-0.00085,-0.58745l-0.00075,-0.58745l-0.00064,-0.58772l-0.00055,-0.58745l-0.00046,-0.58745l-0.00037,-0.58745l-0.00019,-0.39694l-0.00017,-0.58745l-0.00004,-0.58772l0.0001,-0.58745l0.00025,-0.58772l0.0004,-0.58745l0.00056,-0.58772l0.00072,-0.58772l0.00089,-0.58745l0.00106,-0.58772l0.00125,-0.58772l0.00144,-0.58772l0.00164,-0.58772l0.00185,-0.58772l0.00207,-0.58772l0.0023,-0.58772l0.00254,-0.58793l0.0028,-0.58783l0.00307,-0.58788l0.00335,-0.5879l0.00364,-0.58796l0.00396,-0.58799l0.0043,-0.58801l0.00466,-0.58809l0.00505,-0.58814l0.00545,-0.5882l0.0059,-0.58828l0.00637,-0.58833l0.00689,-0.58846l0.00746,-0.58852l0.00808,-0.58867l0.00876,-0.58881l0.00951,-0.58897l0.01035,-0.58916l0.0113,-0.58939l0.01238,-0.58968l0.01363,-0.59006l0.01509,-0.59051l0.01683,-0.59112l0.01896,-0.59196l0.02164,-0.59314l0.02517,-0.59494l0.03013,-0.59788l0.03782,-0.60346c0.00066,-0.01056 0.00145,-0.02112 0.00235,-0.03168l0.05001,-0.58507c0.00283,-0.03312 0.00683,-0.06608 0.01198,-0.09889l0.09109,-0.57955c0.01111,-0.07071 0.02751,-0.14015 0.04919,-0.20834l0.17628,-0.5545c0.00848,-0.02668 0.01774,-0.05307 0.02779,-0.07918l0.21084,-0.548c0.01061,-0.02758 0.02208,-0.0548 0.03441,-0.08167l0.24483,-0.53367c0.01283,-0.02795 0.02655,-0.05546 0.04118,-0.08252l0.27917,-0.51651c0.01504,-0.02782 0.03099,-0.05511 0.04787,-0.08185l0.31324,-0.4966c0.01713,-0.02713 0.03515,-0.05367 0.05409,-0.0796l0.34637,-0.47405c0.01895,-0.02595 0.03877,-0.05122 0.05945,-0.07581l0.37791,-0.44932c0.02042,-0.02427 0.04162,-0.04782 0.06362,-0.07066l0.40732,-0.42287c0.02144,-0.02226 0.04358,-0.04377 0.06641,-0.06455l0.43422,-0.39522c0.02197,-0.02001 0.04456,-0.0393 0.06777,-0.0579l0.45831,-0.36701c0.02208,-0.01769 0.04467,-0.0347 0.0678,-0.05102l0.47954,-0.33878c0.02181,-0.01542 0.04405,-0.03021 0.06671,-0.04434l0.49801,-0.31105c0.02123,-0.01325 0.04279,-0.02594 0.06469,-0.03804l0.51385,-0.28413c0.02981,-0.01648 0.06018,-0.03187 0.09112,-0.04615l0.24549,-0.11338c0.03793,-0.01752 0.07656,-0.03331 0.1159,-0.0474l0.55267,-0.19793c0.0276,-0.00988 0.05546,-0.01889 0.0836,-0.02704l0.56408,-0.16317c0.0158,-0.00457 0.03165,-0.00886 0.04757,-0.01287l0.56947,-0.14337c0.01052,-0.00265 0.02108,-0.00518 0.03168,-0.00759l0.57262,-0.13019l0.59772,-0.12563l0.59391,-0.11684l0.59149,-0.11006l0.58984,-0.10462l0.58873,-0.10014l0.5879,-0.09634l0.5873,-0.09308l0.58682,-0.09024l0.5865,-0.08773l0.58618,-0.08549l0.586,-0.08348l0.58581,-0.08166l0.58565,-0.08001l0.58557,-0.07849l0.58546,-0.07709l0.58538,-0.07581l0.58531,-0.0746l0.58528,-0.07349l0.58525,-0.07245l0.5852,-0.07147l0.58517,-0.07055l0.58514,-0.06968l0.58514,-0.06887l0.58512,-0.0681l0.3232,-0.03727l0.58512,-0.06677l0.58578,-0.06591l0.58602,-0.06494l0.58626,-0.06392l0.5865,-0.06284l0.5869,-0.0617l0.58692,-0.0605l0.58745,-0.05921l0.58772,-0.05784l0.58799,-0.05638l0.58852,-0.05481l0.58905,-0.05312l0.58958,-0.05129l0.58984,-0.04932l0.59064,-0.04717l0.59117,-0.04481l0.59223,-0.04221l0.59276,-0.03933l0.59409,-0.03612l0.59489,-0.0325l0.27993,-0.01389l0.59303,-0.02671l0.59436,-0.02358l0.59329,-0.02085l0.59223,-0.01851l0.59196,-0.01648l0.59117,-0.01469l0.5909,-0.0131l0.59038,-0.01168l0.59038,-0.0104l0.58984,-0.00924l0.58984,-0.00817l0.58958,-0.00719l0.58931,-0.00628l0.58905,-0.00544l0.58931,-0.00467l0.58878,-0.00394l0.58905,-0.00325l0.58852,-0.00262l0.58878,-0.00201l0.58852,-0.00144l0.58852,-0.0009l0.58852,-0.0004l0.58852,0.00009l0.57286,0.00057l0.58852,0.00115l0.58852,0.00175l0.58878,0.00238l0.58878,0.00304l0.58905,0.00373l0.58878,0.00447l0.58931,0.00524l0.58905,0.00606l0.58931,0.00693l0.58931,0.00785l0.58958,0.00883l0.58958,0.00988l0.58984,0.01101l0.59011,0.01222l0.59011,0.01353l0.59038,0.01495l0.5909,0.0165l0.5909,0.0182l0.59143,0.02007l0.5917,0.02215l0.59223,0.02447l0.59276,0.02709l0.59356,0.03007l0.59436,0.03353l0.28046,0.01714l0.59223,0.03889l0.59356,0.04229l0.5925,0.04518l0.5917,0.04779l0.5909,0.05016l0.59011,0.05231l0.58958,0.05429l0.58905,0.05611l0.58852,0.0578l0.58799,0.05936l0.58772,0.06082l0.58719,0.06218l0.58692,0.06347l0.58666,0.06466l0.58639,0.0658l0.58613,0.06687l0.58587,0.06789l0.58533,0.06884l0.58533,0.06976l0.58533,0.07063l0.5848,0.07146l0.5848,0.07225l0.58454,0.073l0.55455,0.06991l0.58401,0.07421l0.58427,0.0749l0.58401,0.07566l0.58427,0.07647l0.58427,0.07738l0.58427,0.07839l0.58454,0.0795l0.58454,0.08077l0.58507,0.08222l0.58507,0.08389l0.58533,0.08585l0.58613,0.08819l0.58666,0.09107l0.58772,0.09471l0.58958,0.09952l0.5925,0.1063l0.5978,0.11691c0.01309,0.00253 0.026,0.00524 0.03874,0.00814l0.57286,0.12892c0.01291,0.0029 0.02574,0.00597 0.03847,0.00922l0.12948,0.03295c0.01291,0.00331 0.02583,0.0068 0.03874,0.01048l0.56464,0.16109c0.02211,0.00632 0.04413,0.01318 0.06607,0.02057l0.55615,0.18853c0.02317,0.00791 0.04626,0.01643 0.06925,0.02555l0.54553,0.21739c0.02423,0.00971 0.04829,0.02008 0.07217,0.03114l0.53227,0.24744c0.02512,0.01167 0.04988,0.02408 0.0743,0.03721l0.51714,0.27835c0.02547,0.01376 0.05059,0.02829 0.07535,0.0436l0.49883,0.3097c0.02547,0.01587 0.0505,0.03253 0.07509,0.04999l0.47787,0.34096c0.02512,0.0179 0.04962,0.03661 0.0735,0.05612l0.45452,0.37152c0.02423,0.01976 0.04776,0.04028 0.07058,0.06158l0.42905,0.40084c0.02282,0.0213 0.04484,0.04331 0.06607,0.06604l0.40145,0.42839c0.02105,0.02243 0.04131,0.04552 0.06076,0.06928l0.3728,0.45367c0.01893,0.02314 0.03715,0.04685 0.05466,0.07114l0.34308,0.47646c0.00849,0.0118 0.01681,0.02373 0.02494,0.03579l0.24225,0.35935l0.32822,0.48692c0.0099,0.01468 0.01954,0.02954 0.02892,0.04458l0.2067,0.333c0.01822,0.02936 0.03538,0.05936 0.05148,0.08997l0.18176,0.3474c0.0161,0.03094 0.03113,0.06243 0.04511,0.09446l0.15549,0.35987c0.01379,0.0323 0.02645,0.06506 0.03794,0.09828l0.12816,0.37043c0.01132,0.03276 0.02149,0.06588 0.03051,0.09937l0.10056,0.3789c0.00885,0.03346 0.01645,0.06722 0.02282,0.10125l0.07244,0.38532c0.00654,0.03449 0.01176,0.06917 0.01565,0.10404l0.04351,0.38962c0.00389,0.0349 0.00646,0.0699 0.0077,0.10499l0.01433,0.39177c0.00071,0.01719 0.00106,0.03438 0.00106,0.05158v26.11042zM162.39891,187.35515l-0.01141,-0.31344l-0.03184,-0.28505l-0.05307,-0.28237l-0.07376,-0.27852l-0.09393,-0.27149l-0.11383,-0.2634l-0.13346,-0.25504l-0.1653,-0.26643l-0.31363,-0.4649l-0.22978,-0.34117l-0.30434,-0.42241l-0.31469,-0.38333l-0.3383,-0.36067l-0.36059,-0.33693l-0.38235,-0.31259l-0.40384,-0.28792l-0.42348,-0.26292l-0.44205,-0.23801l-0.45903,-0.21336l-0.47442,-0.18913l-0.48848,-0.16557l-0.5121,-0.1461l-0.09074,-0.02314l-0.53439,-0.12027l-0.53518,-0.10492l-0.56357,-0.10125l-0.56835,-0.09608l-0.5718,-0.09215l-0.57392,-0.0891l-0.57552,-0.08663l-0.57631,-0.08454l-0.57764,-0.08281l-0.57817,-0.0813l-0.5787,-0.07997l-0.57923,-0.07881l-0.57976,-0.07777l-0.58003,-0.07682l-0.58056,-0.07597l-0.58056,-0.07522l-0.58082,-0.07448l-0.58109,-0.07385l-0.55164,-0.06952l-0.58082,-0.07255l-0.58082,-0.07178l-0.58109,-0.07096l-0.58082,-0.07012l-0.58082,-0.06923l-0.58082,-0.0683l-0.58109,-0.06731l-0.58082,-0.06628l-0.58082,-0.06519l-0.58082,-0.06403l-0.58056,-0.0628l-0.58082,-0.06149l-0.58056,-0.06009l-0.58029,-0.05861l-0.58056,-0.057l-0.58003,-0.05528l-0.58003,-0.05342l-0.57976,-0.0514l-0.57923,-0.0492l-0.57923,-0.0468l-0.57843,-0.04415l-0.5779,-0.04121l-0.57976,-0.03809l-0.2672,-0.01636l-0.57817,-0.03267l-0.5795,-0.0294l-0.58029,-0.02655l-0.58135,-0.02404l-0.58188,-0.02179l-0.58241,-0.01978l-0.58294,-0.01796l-0.58347,-0.0163l-0.58374,-0.01479l-0.58374,-0.0134l-0.58427,-0.01211l-0.58454,-0.01091l-0.58454,-0.0098l-0.5848,-0.00876l-0.58507,-0.00779l-0.58507,-0.00688l-0.58533,-0.00602l-0.58533,-0.00521l-0.5856,-0.00444l-0.5856,-0.00372l-0.5856,-0.00302l-0.5856,-0.00237l-0.58587,-0.00174l-0.58587,-0.00115l-0.57047,-0.00057l-0.58613,-0.00009l-0.58587,0.0004l-0.58613,0.0009l-0.58587,0.00144l-0.5856,0.002l-0.58587,0.0026l-0.5856,0.00324l-0.58533,0.00391l-0.58533,0.00463l-0.58533,0.00541l-0.58507,0.00623l-0.5848,0.00713l-0.58454,0.00809l-0.58454,0.00914l-0.58401,0.01029l-0.58374,0.01155l-0.58347,0.01293l-0.58268,0.01447l-0.58241,0.01619l-0.58135,0.01815l-0.58056,0.02037l-0.57923,0.02295l-0.58029,0.0261l-0.2656,0.01316l-0.57764,0.03149l-0.57843,0.03513l-0.57896,0.03838l-0.5795,0.04129l-0.58003,0.04392l-0.58003,0.04632l-0.58056,0.0485l-0.58056,0.05051l-0.58082,0.05237l-0.58082,0.05408l-0.58109,0.05569l-0.58109,0.05718l-0.58109,0.05857l-0.58109,0.05988l-0.58138,0.06112l-0.5813,0.06228l-0.5813,0.06338l-0.58133,0.06442l-0.58133,0.0654l-0.58178,0.06639l-0.32029,0.03693l-0.58149,0.06767l-0.5813,0.06841l-0.58109,0.0692l-0.58085,0.07003l-0.58063,0.0709l-0.58035,0.07184l-0.58005,0.07283l-0.57973,0.07388l-0.57937,0.07504l-0.57896,0.07623l-0.57851,0.07753l-0.57801,0.07894l-0.57742,0.0805l-0.57676,0.08215l-0.57599,0.08398l-0.57507,0.086l-0.57403,0.08825l-0.5727,0.09072l-0.57111,0.09356l-0.56915,0.09671l-0.5666,0.1004l-0.5632,0.10465l-0.5585,0.10966l-0.55172,0.11555l-0.55675,0.1266l-0.52974,0.13336l-0.49814,0.14411l-0.45232,0.16196l-0.14219,0.0657l-0.43629,0.24124l-0.4322,0.26993l-0.41217,0.29118l-0.39036,0.31262l-0.36696,0.334l-0.34218,0.35523l-0.31628,0.37606l-0.28954,0.39628l-0.26223,0.41573l-0.23469,0.43417l-0.2071,0.45144l-0.17984,0.46744l-0.13105,0.4122l-0.06668,0.42425l-0.04445,0.51974l-0.03484,0.55273l-0.02906,0.57509l-0.02452,0.57849l-0.02123,0.58056l-0.01865,0.58194l-0.01661,0.58286l-0.01491,0.58361l-0.01351,0.58411l-0.01229,0.58454l-0.01122,0.58486l-0.01027,0.58514l-0.00947,0.58536l-0.0087,0.58557l-0.00804,0.5857l-0.0074,0.58584l-0.00687,0.58597l-0.00637,0.58605l-0.00586,0.58615l-0.00544,0.58623l-0.00502,0.58629l-0.00464,0.58636l-0.0043,0.58642l-0.00395,0.58647l-0.00363,0.5865l-0.00334,0.58655l-0.00305,0.58661l-0.00278,0.58661l-0.00255,0.58661l-0.00231,0.58666l-0.00207,0.58692l-0.00183,0.58666l-0.00165,0.58666l-0.00143,0.58692l-0.00124,0.58666l-0.00108,0.58692l-0.00089,0.58666l-0.00072,0.58692l-0.00056,0.58692l-0.0004,0.58692l-0.00025,0.58692l-0.0001,0.58666l0.00004,0.58692l0.00017,0.58719l0.00019,0.39668l0.00037,0.58692l0.00046,0.58692l0.00055,0.58719l0.00064,0.58692l0.00075,0.58692l0.00085,0.58719l0.00096,0.58692l0.00106,0.58692l0.00117,0.58692l0.0013,0.58692l0.00141,0.58692l0.00154,0.58692l0.00167,0.58692l0.00183,0.58692l0.00197,0.58692l0.0021,0.58666l0.00228,0.58692l0.00244,0.58692l0.00263,0.58666l0.00281,0.58666l0.003,0.58692l0.00321,0.58666l0.00342,0.58666l0.00366,0.58666l0.00393,0.58639l0.00419,0.58666l0.00449,0.58639l0.00477,0.58639l0.00512,0.58639l0.00547,0.58639l0.00589,0.58613l0.00629,0.58613l0.0068,0.58587l0.00729,0.5856l0.00791,0.5856l0.00857,0.58533l0.00931,0.58507l0.01022,0.5848l0.0112,0.58401l0.01244,0.58347l0.01393,0.58241l0.01576,0.58109l0.0182,0.57817l0.02152,0.57339l0.02627,0.55959l0.03739,0.56304l0.02186,0.22023l0.06917,0.54686l0.0783,0.56543l0.08496,0.56464l0.09151,0.56384l0.09796,0.56278l0.1043,0.56225l0.11054,0.56092l0.11672,0.56013l0.12275,0.55906l0.12872,0.55773l0.13458,0.55694l0.14031,0.55561l0.14596,0.55429l0.15153,0.55296l0.157,0.5519l0.16236,0.55031l0.16761,0.54924l0.17278,0.54766l0.17788,0.54633l0.18284,0.54473l0.18773,0.54341l0.19256,0.54208l0.19725,0.54049l0.20187,0.5389l0.20641,0.53757l0.21086,0.53571l0.21522,0.53439l0.21948,0.53306l0.22371,0.5312l0.22784,0.52987l0.23384,0.53253l0.00175,0.00398l0.23581,0.52616l0.23965,0.52457l0.24355,0.52245l0.24751,0.52033l0.25146,0.51847l0.25544,0.51634l0.25947,0.51422l0.26353,0.51183l0.26762,0.50971l0.27176,0.50732l0.27587,0.50494l0.28006,0.50228l0.28426,0.50016l0.28848,0.49724l0.29272,0.49459l0.29702,0.4922l0.30129,0.48901l0.30562,0.48636l0.30994,0.48344l0.31429,0.48052l0.31867,0.47761l0.32305,0.47415l0.32745,0.47124l0.33188,0.46779l0.33629,0.4646l0.34072,0.46115l0.34515,0.45771l0.34961,0.45426l0.35404,0.45054l0.3585,0.44683l0.36457,0.44524l0.23493,0.28205l0.36943,0.43515l0.37487,0.43143l0.37999,0.42746l0.38495,0.42374l0.3897,0.42003l0.39427,0.41631l0.39859,0.41286l0.40281,0.40941l0.40682,0.40623l0.41069,0.40252l0.4144,0.39933l0.41796,0.39615l0.42141,0.39297l0.4247,0.38978l0.42788,0.38686l0.43094,0.38394l0.43393,0.38102l0.43956,0.38049l0.09083,0.07801l0.43969,0.37439l0.44202,0.37094l0.44444,0.36776l0.44685,0.36431l0.44948,0.36059l0.45187,0.35662l0.45426,0.3529l0.45717,0.34892l0.45983,0.34467l0.46248,0.34016l0.46513,0.33539l0.46806,0.33088l0.47097,0.32583l0.47362,0.32079l0.47681,0.31495l0.47973,0.30965l0.48264,0.30355l0.49246,0.30169l0.05015,0.02998l0.49512,0.29558l0.49724,0.2916l0.49936,0.28789l0.50175,0.28391l0.50361,0.2802l0.50573,0.27622l0.50785,0.27197l0.50998,0.26825l0.51183,0.26401l0.51396,0.25976l0.51608,0.25605l0.51794,0.25154l0.5198,0.24729l0.52192,0.24332l0.52378,0.23881l0.52563,0.23456l0.52749,0.23004l0.52961,0.2258l0.5312,0.22155l0.53412,0.21731l0.39217,0.15655l0.53041,0.20113l0.51449,0.1783l0.51555,0.16079l0.51608,0.14116l0.51529,0.11967l0.51369,0.09605l0.50971,0.07005l0.50414,0.04139l0.51157,0.01061l0.1669,-0.00425l0.50812,-0.03768l0.50414,-0.06872l0.51316,-0.09632l0.519,-0.11993l0.52218,-0.14063l0.52378,-0.15814l0.52431,-0.17379l0.51051,-0.18176l0.53041,-0.20165l0.26136,-0.10348l0.53333,-0.21651l0.53147,-0.22076l0.52961,-0.22527l0.52775,-0.22978l0.52563,-0.23376l0.52378,-0.23854l0.52165,-0.24278l0.51926,-0.24703l0.51741,-0.25154l0.51502,-0.25578l0.5129,-0.2603l0.51051,-0.26454l0.50838,-0.26905l0.50573,-0.2733l0.50361,-0.27781l0.50096,-0.28205l0.4983,-0.28656l0.49592,-0.29081l0.49326,-0.29506l0.49087,-0.2993l0.48795,-0.30381l0.4853,-0.30806l0.48238,-0.3123l0.47999,-0.31628l0.47681,-0.32079l0.47415,-0.32504l0.47124,-0.32902l0.46806,-0.33327l0.4654,-0.33751l0.46222,-0.34149l0.45929,-0.34573l0.45611,-0.34971l0.4532,-0.35343l0.45001,-0.35767l0.44683,-0.36165l0.44364,-0.36564l0.44046,-0.36962l0.43727,-0.37306l0.43409,-0.37731l0.43064,-0.38102l0.42746,-0.38448l0.42401,-0.38845l0.42083,-0.39217l0.41738,-0.39562l0.41392,-0.39933l0.41286,-0.4049l0.2006,-0.19927l0.40464,-0.40729l0.40092,-0.41127l0.39694,-0.41472l0.39297,-0.41843l0.38899,-0.42215l0.38527,-0.4256l0.38129,-0.42931l0.37704,-0.43276l0.37306,-0.43648l0.36908,-0.43966l0.36484,-0.44311l0.36086,-0.44656l0.35662,-0.45001l0.35263,-0.4532l0.34812,-0.45664l0.34388,-0.45957l0.3399,-0.46301l0.33539,-0.4662l0.33141,-0.46911l0.3269,-0.47203l0.32265,-0.47522l0.31814,-0.4784l0.31416,-0.48106l0.30938,-0.48397l0.3054,-0.48663l0.30089,-0.48955l0.29665,-0.4922l0.29213,-0.49512l0.28789,-0.4975l0.28338,-0.50016l0.27913,-0.50255l0.27489,-0.5052l0.27038,-0.50759l0.26852,-0.51449l0.03449,-0.06686l0.26109,-0.51236l0.25658,-0.51475l0.25207,-0.51687l0.24783,-0.519l0.24332,-0.52112l0.23881,-0.52298l0.23429,-0.52536l0.22978,-0.52696l0.225,-0.52935l0.22049,-0.53094l0.21598,-0.53306l0.21147,-0.53466l0.2067,-0.53678l0.20192,-0.53837l0.19741,-0.53996l0.1929,-0.54208l0.18812,-0.54341l0.18335,-0.545l0.17884,-0.54659l0.17406,-0.54845l0.16928,-0.54951l0.16477,-0.55137l0.16,-0.55243l0.15522,-0.55402l0.15071,-0.55508l0.14593,-0.55668l0.14116,-0.55773l0.13665,-0.55906l0.13214,-0.56013l0.12709,-0.56145l0.12285,-0.56225l0.11807,-0.56357l0.1133,-0.56437l0.10905,-0.5665l0.07615,-0.4118l0.05466,-0.49963l0.03343,-0.53094l0.02707,-0.57419l0.02202,-0.57843l0.01858,-0.58082l0.01619,-0.58241l0.01433,-0.58347l0.013,-0.58401l0.01167,-0.58454l0.01035,-0.58507l0.00982,-0.58533l0.00876,-0.58533l0.00823,-0.58587l0.00743,-0.58587l0.0069,-0.58587l0.00663,-0.58613l0.0061,-0.58639l0.00557,-0.58613l0.01008,-1.17279l0.00451,-0.58666l0.00425,-0.58639l0.00398,-0.58666l0.00372,-0.58666l0.00345,-0.58666l0.00637,-1.17332l0.00265,-0.58666l0.00265,-0.58692l0.00239,-0.58692l0.00212,-0.58666l0.00212,-0.58692l0.00186,-0.58692l0.00186,-0.58666l0.00159,-0.58692l0.00265,-1.17385l0.00212,-1.17385l0.00106,-0.58719l0.00159,-1.17385l0.00106,-1.17385l0.00026,-0.58719l0.00053,-1.17385z" data-paper-data="{&quot;isPathIcon&quot;:true}"></path></g><path d="M187.0083,295.13436v-120.26873h2.7406v120.26873z" data-paper-data="{&quot;isShapeTextSeparator&quot;:true}"></path></g></g></svg>